<mxfile host="app.diagrams.net" modified="2024-02-26T01:51:17.867Z" agent="Mozilla/5.0 (Windows NT 10.0; Win64; x64) AppleWebKit/537.36 (KHTML, like Gecko) Chrome/122.0.0.0 Safari/537.36 Edg/122.0.0.0" etag="NPqH7dYC9qCCQ_1Nxr2f" version="23.0.2" type="onedrive">
  <diagram name="LOD" id="c7558073-3199-34d8-9f00-42111426c3f3">
    <mxGraphModel grid="1" page="1" gridSize="5" guides="1" tooltips="1" connect="1" arrows="1" fold="1" pageScale="1" pageWidth="1600" pageHeight="900" background="none" math="0" shadow="0">
      <root>
        <mxCell id="0" />
        <mxCell id="1" parent="0" />
        <mxCell id="wRKb6D9P7SZcGGQBe_X7-182" value="" style="rounded=0;whiteSpace=wrap;html=1;dashed=1;fillColor=#f5f5f5;fontColor=#333333;strokeColor=#666666;movable=0;resizable=0;rotatable=0;deletable=0;editable=0;locked=1;connectable=0;" vertex="1" parent="1">
          <mxGeometry x="413" y="570.5" width="107" height="163" as="geometry" />
        </mxCell>
        <mxCell id="wRKb6D9P7SZcGGQBe_X7-138" value="" style="rounded=0;whiteSpace=wrap;html=1;dashed=1;fillColor=#d5e8d4;strokeColor=#82b366;" vertex="1" parent="1">
          <mxGeometry x="190" y="200" width="304" height="190" as="geometry" />
        </mxCell>
        <mxCell id="wRKb6D9P7SZcGGQBe_X7-135" value="" style="rounded=0;whiteSpace=wrap;html=1;dashed=1;fillColor=#dae8fc;strokeColor=#6c8ebf;" vertex="1" parent="1">
          <mxGeometry x="190" y="59" width="390" height="120" as="geometry" />
        </mxCell>
        <mxCell id="wRKb6D9P7SZcGGQBe_X7-96" value="Line Buffer&#xa;SPRAM" style="whiteSpace=wrap;align=center;verticalAlign=middle;fontStyle=1;strokeWidth=3;fillColor=#FFFFCC;spacing=2;" vertex="1" parent="1">
          <mxGeometry x="231.5" y="114" width="90" height="50" as="geometry" />
        </mxCell>
        <mxCell id="wRKb6D9P7SZcGGQBe_X7-123" style="edgeStyle=orthogonalEdgeStyle;rounded=1;orthogonalLoop=1;jettySize=auto;html=1;exitX=1;exitY=0.5;exitDx=0;exitDy=0;strokeColor=#990000;strokeWidth=2;" edge="1" parent="1" source="wRKb6D9P7SZcGGQBe_X7-97" target="wRKb6D9P7SZcGGQBe_X7-121">
          <mxGeometry relative="1" as="geometry" />
        </mxCell>
        <mxCell id="wRKb6D9P7SZcGGQBe_X7-97" value="Bilinear interpolation" style="whiteSpace=wrap;align=center;verticalAlign=middle;fontStyle=1;strokeWidth=3;fillColor=#FFFFCC;spacing=2;" vertex="1" parent="1">
          <mxGeometry x="404" y="114" width="90" height="50" as="geometry" />
        </mxCell>
        <mxCell id="wRKb6D9P7SZcGGQBe_X7-99" value="" style="edgeStyle=elbowEdgeStyle;elbow=horizontal;strokeColor=#990000;strokeWidth=2;exitX=1;exitY=0.5;exitDx=0;exitDy=0;entryX=0;entryY=0.5;entryDx=0;entryDy=0;" edge="1" parent="1" source="wRKb6D9P7SZcGGQBe_X7-96" target="wRKb6D9P7SZcGGQBe_X7-97">
          <mxGeometry width="100" height="100" relative="1" as="geometry">
            <mxPoint x="362" y="-36" as="sourcePoint" />
            <mxPoint x="472" y="44" as="targetPoint" />
            <Array as="points">
              <mxPoint x="334" y="134" />
            </Array>
          </mxGeometry>
        </mxCell>
        <mxCell id="wRKb6D9P7SZcGGQBe_X7-100" value="pre_pix/8bpc" style="text;spacingTop=-5;align=center" vertex="1" parent="1">
          <mxGeometry x="323.5" y="119" width="70" height="20" as="geometry" />
        </mxCell>
        <mxCell id="wRKb6D9P7SZcGGQBe_X7-118" style="edgeStyle=orthogonalEdgeStyle;rounded=1;orthogonalLoop=1;jettySize=auto;html=1;exitX=0;exitY=0.5;exitDx=0;exitDy=0;startArrow=classic;startFill=1;endArrow=none;endFill=0;strokeColor=#990000;strokeWidth=2;" edge="1" parent="1" source="wRKb6D9P7SZcGGQBe_X7-101">
          <mxGeometry relative="1" as="geometry">
            <mxPoint x="170" y="140" as="targetPoint" />
          </mxGeometry>
        </mxCell>
        <mxCell id="wRKb6D9P7SZcGGQBe_X7-101" value="LOD_X interpolation" style="whiteSpace=wrap;align=center;verticalAlign=middle;fontStyle=1;strokeWidth=3;fillColor=#FFFFCC;spacing=2;" vertex="1" parent="1">
          <mxGeometry x="220" y="220" width="90" height="40" as="geometry" />
        </mxCell>
        <mxCell id="wRKb6D9P7SZcGGQBe_X7-119" style="edgeStyle=orthogonalEdgeStyle;rounded=1;orthogonalLoop=1;jettySize=auto;html=1;exitX=0;exitY=0.5;exitDx=0;exitDy=0;endArrow=none;startArrow=classic;startFill=1;endFill=0;strokeColor=#990000;strokeWidth=2;" edge="1" parent="1" source="wRKb6D9P7SZcGGQBe_X7-102">
          <mxGeometry relative="1" as="geometry">
            <mxPoint x="170" y="140" as="targetPoint" />
          </mxGeometry>
        </mxCell>
        <mxCell id="wRKb6D9P7SZcGGQBe_X7-102" value="LOD_Y interpolation" style="whiteSpace=wrap;align=center;verticalAlign=middle;fontStyle=1;strokeWidth=3;fillColor=#FFFFCC;spacing=2;" vertex="1" parent="1">
          <mxGeometry x="220" y="280" width="90" height="40" as="geometry" />
        </mxCell>
        <mxCell id="wRKb6D9P7SZcGGQBe_X7-120" style="edgeStyle=orthogonalEdgeStyle;rounded=1;orthogonalLoop=1;jettySize=auto;html=1;exitX=0;exitY=0.5;exitDx=0;exitDy=0;endArrow=none;startArrow=classic;startFill=1;endFill=0;strokeColor=#990000;strokeWidth=2;" edge="1" parent="1" source="wRKb6D9P7SZcGGQBe_X7-103">
          <mxGeometry relative="1" as="geometry">
            <mxPoint x="170" y="140" as="targetPoint" />
          </mxGeometry>
        </mxCell>
        <mxCell id="wRKb6D9P7SZcGGQBe_X7-103" value="LOD_Z interpolation" style="whiteSpace=wrap;align=center;verticalAlign=middle;fontStyle=1;strokeWidth=3;fillColor=#FFFFCC;spacing=2;" vertex="1" parent="1">
          <mxGeometry x="220" y="340" width="90" height="40" as="geometry" />
        </mxCell>
        <mxCell id="wRKb6D9P7SZcGGQBe_X7-105" value="" style="verticalLabelPosition=bottom;shadow=0;dashed=0;align=center;html=1;verticalAlign=middle;shape=mxgraph.electrical.abstract.multiplier;fillColor=#FFFFCC;fontStyle=1;strokeWidth=3;spacing=2;" vertex="1" parent="1">
          <mxGeometry x="391" y="280" width="40" height="40" as="geometry" />
        </mxCell>
        <mxCell id="wRKb6D9P7SZcGGQBe_X7-106" style="edgeStyle=orthogonalEdgeStyle;rounded=1;orthogonalLoop=1;jettySize=auto;html=1;exitX=1;exitY=0.5;exitDx=0;exitDy=0;entryX=0.5;entryY=1;entryDx=0;entryDy=0;entryPerimeter=0;strokeColor=#990000;strokeWidth=2;" edge="1" parent="1" source="wRKb6D9P7SZcGGQBe_X7-103" target="wRKb6D9P7SZcGGQBe_X7-105">
          <mxGeometry relative="1" as="geometry" />
        </mxCell>
        <mxCell id="wRKb6D9P7SZcGGQBe_X7-107" style="edgeStyle=orthogonalEdgeStyle;rounded=1;orthogonalLoop=1;jettySize=auto;html=1;exitX=1;exitY=0.5;exitDx=0;exitDy=0;entryX=0;entryY=0.5;entryDx=0;entryDy=0;entryPerimeter=0;strokeColor=#990000;strokeWidth=2;" edge="1" parent="1" source="wRKb6D9P7SZcGGQBe_X7-102" target="wRKb6D9P7SZcGGQBe_X7-105">
          <mxGeometry relative="1" as="geometry" />
        </mxCell>
        <mxCell id="wRKb6D9P7SZcGGQBe_X7-114" style="edgeStyle=orthogonalEdgeStyle;rounded=1;orthogonalLoop=1;jettySize=auto;html=1;exitX=1;exitY=0.5;exitDx=0;exitDy=0;exitPerimeter=0;strokeColor=#990000;strokeWidth=2;entryX=0;entryY=0.5;entryDx=0;entryDy=0;entryPerimeter=0;" edge="1" parent="1" source="wRKb6D9P7SZcGGQBe_X7-108" target="wRKb6D9P7SZcGGQBe_X7-121">
          <mxGeometry relative="1" as="geometry">
            <mxPoint x="560" y="240.1428571428571" as="targetPoint" />
          </mxGeometry>
        </mxCell>
        <mxCell id="wRKb6D9P7SZcGGQBe_X7-108" value="" style="verticalLabelPosition=bottom;verticalAlign=middle;html=1;shape=mxgraph.flowchart.summing_function;fillColor=#FFFFCC;shadow=0;dashed=0;fontStyle=1;strokeWidth=3;spacing=2;" vertex="1" parent="1">
          <mxGeometry x="391" y="220" width="40" height="40" as="geometry" />
        </mxCell>
        <mxCell id="wRKb6D9P7SZcGGQBe_X7-109" style="edgeStyle=orthogonalEdgeStyle;rounded=1;orthogonalLoop=1;jettySize=auto;html=1;exitX=1;exitY=0.5;exitDx=0;exitDy=0;entryX=0;entryY=0.5;entryDx=0;entryDy=0;entryPerimeter=0;strokeColor=#990000;strokeWidth=2;" edge="1" parent="1" source="wRKb6D9P7SZcGGQBe_X7-101" target="wRKb6D9P7SZcGGQBe_X7-108">
          <mxGeometry relative="1" as="geometry" />
        </mxCell>
        <mxCell id="wRKb6D9P7SZcGGQBe_X7-110" style="edgeStyle=orthogonalEdgeStyle;rounded=1;orthogonalLoop=1;jettySize=auto;html=1;exitX=0.5;exitY=0;exitDx=0;exitDy=0;exitPerimeter=0;entryX=0.5;entryY=1;entryDx=0;entryDy=0;entryPerimeter=0;strokeColor=#990000;strokeWidth=2;" edge="1" parent="1" source="wRKb6D9P7SZcGGQBe_X7-105" target="wRKb6D9P7SZcGGQBe_X7-108">
          <mxGeometry relative="1" as="geometry" />
        </mxCell>
        <mxCell id="wRKb6D9P7SZcGGQBe_X7-111" value="u0.10" style="text;spacingTop=-5;align=center" vertex="1" parent="1">
          <mxGeometry x="331" y="220.0000000000001" width="30" height="20" as="geometry" />
        </mxCell>
        <mxCell id="wRKb6D9P7SZcGGQBe_X7-112" value="u0.10" style="text;spacingTop=-5;align=center" vertex="1" parent="1">
          <mxGeometry x="331" y="280.0000000000001" width="30" height="20" as="geometry" />
        </mxCell>
        <mxCell id="wRKb6D9P7SZcGGQBe_X7-113" value="u0.10" style="text;spacingTop=-5;align=center" vertex="1" parent="1">
          <mxGeometry x="331" y="340" width="30" height="20" as="geometry" />
        </mxCell>
        <mxCell id="wRKb6D9P7SZcGGQBe_X7-115" value="u1.9" style="text;spacingTop=-5;align=center" vertex="1" parent="1">
          <mxGeometry x="453.5" y="220.0000000000001" width="30" height="20" as="geometry" />
        </mxCell>
        <mxCell id="wRKb6D9P7SZcGGQBe_X7-116" value="" style="edgeStyle=none;orthogonalLoop=1;jettySize=auto;html=1;rounded=1;entryX=0;entryY=0.5;entryDx=0;entryDy=0;strokeColor=#990000;strokeWidth=2;" edge="1" parent="1" target="wRKb6D9P7SZcGGQBe_X7-96">
          <mxGeometry width="100" relative="1" as="geometry">
            <mxPoint x="60" y="140" as="sourcePoint" />
            <mxPoint x="120" y="140" as="targetPoint" />
            <Array as="points" />
          </mxGeometry>
        </mxCell>
        <mxCell id="wRKb6D9P7SZcGGQBe_X7-117" value="From DGATE 10bpc" style="text;html=1;align=center;verticalAlign=middle;resizable=0;points=[];autosize=1;strokeColor=none;fillColor=none;" vertex="1" parent="1">
          <mxGeometry x="30" y="114" width="130" height="30" as="geometry" />
        </mxCell>
        <mxCell id="wRKb6D9P7SZcGGQBe_X7-121" value="" style="verticalLabelPosition=bottom;shadow=0;dashed=0;align=center;html=1;verticalAlign=middle;shape=mxgraph.electrical.abstract.multiplier;fillColor=#FFFFCC;fontStyle=1;strokeWidth=3;spacing=2;" vertex="1" parent="1">
          <mxGeometry x="510" y="220" width="40" height="40" as="geometry" />
        </mxCell>
        <mxCell id="wRKb6D9P7SZcGGQBe_X7-122" value="" style="verticalLabelPosition=bottom;verticalAlign=middle;html=1;shape=mxgraph.flowchart.summing_function;fillColor=#FFFFCC;shadow=0;dashed=0;fontStyle=1;strokeWidth=3;spacing=2;" vertex="1" parent="1">
          <mxGeometry x="695" y="220" width="40" height="40" as="geometry" />
        </mxCell>
        <mxCell id="wRKb6D9P7SZcGGQBe_X7-125" value="u6.4" style="text;spacingTop=-5;align=center" vertex="1" parent="1">
          <mxGeometry x="510" y="119.00000000000011" width="30" height="20" as="geometry" />
        </mxCell>
        <mxCell id="wRKb6D9P7SZcGGQBe_X7-126" style="edgeStyle=orthogonalEdgeStyle;rounded=1;orthogonalLoop=1;jettySize=auto;html=1;exitX=1;exitY=0.5;exitDx=0;exitDy=0;exitPerimeter=0;strokeColor=#990000;strokeWidth=2;" edge="1" parent="1" source="wRKb6D9P7SZcGGQBe_X7-121">
          <mxGeometry relative="1" as="geometry">
            <mxPoint x="600" y="240" as="targetPoint" />
          </mxGeometry>
        </mxCell>
        <mxCell id="wRKb6D9P7SZcGGQBe_X7-127" value="u7.2" style="text;spacingTop=-5;align=center" vertex="1" parent="1">
          <mxGeometry x="555" y="220.0000000000001" width="30" height="20" as="geometry" />
        </mxCell>
        <mxCell id="wRKb6D9P7SZcGGQBe_X7-132" value="" style="edgeStyle=orthogonalEdgeStyle;orthogonalLoop=1;jettySize=auto;html=1;rounded=1;entryX=0.5;entryY=0;entryDx=0;entryDy=0;strokeColor=#990000;strokeWidth=2;" edge="1" parent="1" target="wRKb6D9P7SZcGGQBe_X7-97">
          <mxGeometry width="100" relative="1" as="geometry">
            <mxPoint x="210" y="139" as="sourcePoint" />
            <mxPoint x="450" y="89" as="targetPoint" />
            <Array as="points">
              <mxPoint x="210" y="89" />
              <mxPoint x="449" y="89" />
            </Array>
          </mxGeometry>
        </mxCell>
        <mxCell id="wRKb6D9P7SZcGGQBe_X7-133" value="cur_pix/8bpc" style="text;spacingTop=-5;align=center" vertex="1" parent="1">
          <mxGeometry x="261" y="69" width="70" height="20" as="geometry" />
        </mxCell>
        <mxCell id="wRKb6D9P7SZcGGQBe_X7-134" value="To PIXMAP 8bpc" style="text;html=1;align=center;verticalAlign=middle;resizable=0;points=[];autosize=1;strokeColor=none;fillColor=none;" vertex="1" parent="1">
          <mxGeometry x="735" y="215" width="110" height="30" as="geometry" />
        </mxCell>
        <mxCell id="wRKb6D9P7SZcGGQBe_X7-137" value="LOD_G2G" style="text;html=1;align=center;verticalAlign=middle;resizable=0;points=[];autosize=1;strokeColor=none;fillColor=none;fontColor=#0000CC;fontStyle=1;spacing=0;spacingLeft=0;" vertex="1" parent="1">
          <mxGeometry x="510" y="59" width="70" height="20" as="geometry" />
        </mxCell>
        <mxCell id="wRKb6D9P7SZcGGQBe_X7-140" value="LOD_XY" style="text;html=1;align=center;verticalAlign=middle;resizable=0;points=[];autosize=1;strokeColor=none;fillColor=none;fontColor=#0000CC;fontStyle=1;spacing=0;spacingLeft=0;" vertex="1" parent="1">
          <mxGeometry x="424" y="370" width="70" height="20" as="geometry" />
        </mxCell>
        <mxCell id="wRKb6D9P7SZcGGQBe_X7-141" value="" style="edgeStyle=orthogonalEdgeStyle;orthogonalLoop=1;jettySize=auto;html=1;rounded=1;strokeColor=#990000;strokeWidth=2;entryX=0.5;entryY=0;entryDx=0;entryDy=0;entryPerimeter=0;" edge="1" parent="1" target="HIkEoBBDDZ9_464_qA2W-3">
          <mxGeometry width="100" relative="1" as="geometry">
            <mxPoint x="170" y="140" as="sourcePoint" />
            <mxPoint x="635" y="170" as="targetPoint" />
            <Array as="points">
              <mxPoint x="170" y="50" />
              <mxPoint x="620" y="50" />
            </Array>
          </mxGeometry>
        </mxCell>
        <mxCell id="wRKb6D9P7SZcGGQBe_X7-142" value="10bpc" style="text;spacingTop=-5;align=center" vertex="1" parent="1">
          <mxGeometry x="301" y="30" width="70" height="20" as="geometry" />
        </mxCell>
        <mxCell id="wRKb6D9P7SZcGGQBe_X7-143" value="Position" style="text;html=1;align=center;verticalAlign=middle;resizable=0;points=[];autosize=1;strokeColor=none;fillColor=none;" vertex="1" parent="1">
          <mxGeometry x="160" y="190" width="70" height="30" as="geometry" />
        </mxCell>
        <mxCell id="wRKb6D9P7SZcGGQBe_X7-144" value="0-399" style="rounded=0;whiteSpace=wrap;html=1;fillColor=#dae8fc;strokeColor=#6c8ebf;" vertex="1" parent="1">
          <mxGeometry x="431" y="607" width="79.5" height="20" as="geometry" />
        </mxCell>
        <mxCell id="wRKb6D9P7SZcGGQBe_X7-145" value="400-799" style="rounded=0;whiteSpace=wrap;html=1;fillColor=#d5e8d4;strokeColor=#82b366;" vertex="1" parent="1">
          <mxGeometry x="431" y="637" width="79.5" height="20" as="geometry" />
        </mxCell>
        <mxCell id="wRKb6D9P7SZcGGQBe_X7-146" value="800-1199" style="rounded=0;whiteSpace=wrap;html=1;fillColor=#f8cecc;strokeColor=#b85450;" vertex="1" parent="1">
          <mxGeometry x="431" y="672" width="79.5" height="20" as="geometry" />
        </mxCell>
        <mxCell id="wRKb6D9P7SZcGGQBe_X7-147" value="1200-1599" style="rounded=0;whiteSpace=wrap;html=1;fillColor=#fff2cc;strokeColor=#d6b656;" vertex="1" parent="1">
          <mxGeometry x="431" y="705" width="79.5" height="20" as="geometry" />
        </mxCell>
        <mxCell id="wRKb6D9P7SZcGGQBe_X7-184" style="rounded=0;orthogonalLoop=1;jettySize=auto;html=1;exitX=1;exitY=0.5;exitDx=0;exitDy=0;entryX=0;entryY=0.25;entryDx=0;entryDy=0;" edge="1" parent="1" source="wRKb6D9P7SZcGGQBe_X7-148" target="wRKb6D9P7SZcGGQBe_X7-144">
          <mxGeometry relative="1" as="geometry">
            <mxPoint x="390" y="610" as="targetPoint" />
          </mxGeometry>
        </mxCell>
        <mxCell id="wRKb6D9P7SZcGGQBe_X7-148" value="subline0" style="rounded=0;whiteSpace=wrap;html=1;fillColor=#dae8fc;strokeColor=#6c8ebf;" vertex="1" parent="1">
          <mxGeometry x="251.5" y="599.5" width="79.5" height="15" as="geometry" />
        </mxCell>
        <mxCell id="wRKb6D9P7SZcGGQBe_X7-185" style="rounded=0;orthogonalLoop=1;jettySize=auto;html=1;exitX=1;exitY=0.5;exitDx=0;exitDy=0;entryX=0;entryY=0.25;entryDx=0;entryDy=0;" edge="1" parent="1" source="wRKb6D9P7SZcGGQBe_X7-153" target="wRKb6D9P7SZcGGQBe_X7-145">
          <mxGeometry relative="1" as="geometry" />
        </mxCell>
        <mxCell id="wRKb6D9P7SZcGGQBe_X7-153" value="subline1" style="rounded=0;whiteSpace=wrap;html=1;fillColor=#d5e8d4;strokeColor=#82b366;" vertex="1" parent="1">
          <mxGeometry x="251.5" y="614.5" width="79.5" height="15" as="geometry" />
        </mxCell>
        <mxCell id="wRKb6D9P7SZcGGQBe_X7-186" style="rounded=0;orthogonalLoop=1;jettySize=auto;html=1;exitX=1;exitY=0.5;exitDx=0;exitDy=0;entryX=0;entryY=0.25;entryDx=0;entryDy=0;" edge="1" parent="1" source="wRKb6D9P7SZcGGQBe_X7-154" target="wRKb6D9P7SZcGGQBe_X7-146">
          <mxGeometry relative="1" as="geometry" />
        </mxCell>
        <mxCell id="wRKb6D9P7SZcGGQBe_X7-154" value="subline2" style="rounded=0;whiteSpace=wrap;html=1;fillColor=#f8cecc;strokeColor=#b85450;" vertex="1" parent="1">
          <mxGeometry x="251.5" y="629.5" width="79.5" height="15" as="geometry" />
        </mxCell>
        <mxCell id="wRKb6D9P7SZcGGQBe_X7-156" value="subline3" style="rounded=0;whiteSpace=wrap;html=1;fillColor=#fff2cc;strokeColor=#d6b656;" vertex="1" parent="1">
          <mxGeometry x="251.5" y="644.5" width="79.5" height="15" as="geometry" />
        </mxCell>
        <mxCell id="wRKb6D9P7SZcGGQBe_X7-157" value="Line0" style="rounded=0;whiteSpace=wrap;html=1;horizontal=0;" vertex="1" parent="1">
          <mxGeometry x="238.5" y="599.5" width="13" height="60" as="geometry" />
        </mxCell>
        <mxCell id="wRKb6D9P7SZcGGQBe_X7-160" value="subline3" style="rounded=0;whiteSpace=wrap;html=1;fillColor=#f8cecc;strokeColor=#b85450;" vertex="1" parent="1">
          <mxGeometry x="251.5" y="659.5" width="79.5" height="15" as="geometry" />
        </mxCell>
        <mxCell id="wRKb6D9P7SZcGGQBe_X7-161" value="subline0" style="rounded=0;whiteSpace=wrap;html=1;fillColor=#dae8fc;strokeColor=#6c8ebf;" vertex="1" parent="1">
          <mxGeometry x="251.5" y="674.5" width="79.5" height="15" as="geometry" />
        </mxCell>
        <mxCell id="wRKb6D9P7SZcGGQBe_X7-162" value="subline1" style="rounded=0;whiteSpace=wrap;html=1;fillColor=#d5e8d4;strokeColor=#82b366;" vertex="1" parent="1">
          <mxGeometry x="251.5" y="689.5" width="79.5" height="15" as="geometry" />
        </mxCell>
        <mxCell id="wRKb6D9P7SZcGGQBe_X7-163" value="subline2" style="rounded=0;whiteSpace=wrap;html=1;fillColor=#fff2cc;strokeColor=#d6b656;" vertex="1" parent="1">
          <mxGeometry x="251.5" y="704.5" width="79.5" height="15" as="geometry" />
        </mxCell>
        <mxCell id="wRKb6D9P7SZcGGQBe_X7-164" value="Line1" style="rounded=0;whiteSpace=wrap;html=1;horizontal=0;" vertex="1" parent="1">
          <mxGeometry x="238.5" y="659.5" width="13" height="60" as="geometry" />
        </mxCell>
        <mxCell id="wRKb6D9P7SZcGGQBe_X7-183" value="SRAM space" style="text;html=1;align=center;verticalAlign=middle;resizable=0;points=[];autosize=1;strokeColor=none;fillColor=none;spacing=0;" vertex="1" parent="1">
          <mxGeometry x="113" y="785.5" width="85" height="25" as="geometry" />
        </mxCell>
        <mxCell id="wRKb6D9P7SZcGGQBe_X7-187" style="rounded=0;orthogonalLoop=1;jettySize=auto;html=1;exitX=1;exitY=0.5;exitDx=0;exitDy=0;entryX=0;entryY=0.25;entryDx=0;entryDy=0;" edge="1" parent="1" source="wRKb6D9P7SZcGGQBe_X7-156" target="wRKb6D9P7SZcGGQBe_X7-147">
          <mxGeometry relative="1" as="geometry">
            <mxPoint x="341" y="647" as="sourcePoint" />
            <mxPoint x="441" y="692" as="targetPoint" />
          </mxGeometry>
        </mxCell>
        <mxCell id="wRKb6D9P7SZcGGQBe_X7-188" style="rounded=0;orthogonalLoop=1;jettySize=auto;html=1;exitX=1;exitY=0.5;exitDx=0;exitDy=0;entryX=0;entryY=0.75;entryDx=0;entryDy=0;" edge="1" parent="1" source="wRKb6D9P7SZcGGQBe_X7-160" target="wRKb6D9P7SZcGGQBe_X7-147">
          <mxGeometry relative="1" as="geometry">
            <mxPoint x="351" y="657" as="sourcePoint" />
            <mxPoint x="390" y="710" as="targetPoint" />
          </mxGeometry>
        </mxCell>
        <mxCell id="wRKb6D9P7SZcGGQBe_X7-189" style="rounded=0;orthogonalLoop=1;jettySize=auto;html=1;exitX=1;exitY=0.5;exitDx=0;exitDy=0;entryX=0;entryY=0.75;entryDx=0;entryDy=0;" edge="1" parent="1" source="wRKb6D9P7SZcGGQBe_X7-161" target="wRKb6D9P7SZcGGQBe_X7-144">
          <mxGeometry relative="1" as="geometry">
            <mxPoint x="361" y="667" as="sourcePoint" />
            <mxPoint x="461" y="712" as="targetPoint" />
          </mxGeometry>
        </mxCell>
        <mxCell id="wRKb6D9P7SZcGGQBe_X7-190" style="rounded=0;orthogonalLoop=1;jettySize=auto;html=1;exitX=1;exitY=0.5;exitDx=0;exitDy=0;entryX=0;entryY=0.75;entryDx=0;entryDy=0;" edge="1" parent="1" source="wRKb6D9P7SZcGGQBe_X7-162" target="wRKb6D9P7SZcGGQBe_X7-145">
          <mxGeometry relative="1" as="geometry">
            <mxPoint x="371" y="677" as="sourcePoint" />
            <mxPoint x="471" y="722" as="targetPoint" />
          </mxGeometry>
        </mxCell>
        <mxCell id="wRKb6D9P7SZcGGQBe_X7-191" style="rounded=0;orthogonalLoop=1;jettySize=auto;html=1;exitX=1;exitY=0.5;exitDx=0;exitDy=0;entryX=0;entryY=0.75;entryDx=0;entryDy=0;" edge="1" parent="1" source="wRKb6D9P7SZcGGQBe_X7-163" target="wRKb6D9P7SZcGGQBe_X7-146">
          <mxGeometry relative="1" as="geometry">
            <mxPoint x="381" y="687" as="sourcePoint" />
            <mxPoint x="370" y="740" as="targetPoint" />
          </mxGeometry>
        </mxCell>
        <mxCell id="ezdXfAVzl4TvzcvULvYs-1" value="S0" style="rounded=0;whiteSpace=wrap;html=1;fillColor=#dae8fc;strokeColor=#6c8ebf;" vertex="1" parent="1">
          <mxGeometry x="205.25" y="790" width="79.5" height="15" as="geometry" />
        </mxCell>
        <mxCell id="ezdXfAVzl4TvzcvULvYs-2" value="S1" style="rounded=0;whiteSpace=wrap;html=1;fillColor=#d5e8d4;strokeColor=#82b366;" vertex="1" parent="1">
          <mxGeometry x="284.75" y="790" width="79.5" height="15" as="geometry" />
        </mxCell>
        <mxCell id="ezdXfAVzl4TvzcvULvYs-4" value="S2" style="rounded=0;whiteSpace=wrap;html=1;fillColor=#f8cecc;strokeColor=#b85450;" vertex="1" parent="1">
          <mxGeometry x="364.25" y="790" width="79.5" height="15" as="geometry" />
        </mxCell>
        <mxCell id="ezdXfAVzl4TvzcvULvYs-5" value="S3" style="rounded=0;whiteSpace=wrap;html=1;fillColor=#fff2cc;strokeColor=#d6b656;" vertex="1" parent="1">
          <mxGeometry x="443.75" y="790" width="79.5" height="15" as="geometry" />
        </mxCell>
        <mxCell id="ezdXfAVzl4TvzcvULvYs-6" value="" style="endArrow=none;html=1;rounded=0;fillColor=#dae8fc;strokeColor=#6c8ebf;" edge="1" parent="1">
          <mxGeometry width="50" height="50" relative="1" as="geometry">
            <mxPoint x="160" y="855" as="sourcePoint" />
            <mxPoint x="205" y="855" as="targetPoint" />
          </mxGeometry>
        </mxCell>
        <mxCell id="ezdXfAVzl4TvzcvULvYs-7" value="" style="endArrow=none;html=1;rounded=0;fillColor=#dae8fc;strokeColor=#6c8ebf;" edge="1" parent="1">
          <mxGeometry width="50" height="50" relative="1" as="geometry">
            <mxPoint x="205" y="855" as="sourcePoint" />
            <mxPoint x="205" y="835" as="targetPoint" />
          </mxGeometry>
        </mxCell>
        <mxCell id="ezdXfAVzl4TvzcvULvYs-8" value="" style="endArrow=none;html=1;rounded=0;fillColor=#dae8fc;strokeColor=#6c8ebf;" edge="1" parent="1">
          <mxGeometry width="50" height="50" relative="1" as="geometry">
            <mxPoint x="205.25" y="835" as="sourcePoint" />
            <mxPoint x="285.25" y="835" as="targetPoint" />
          </mxGeometry>
        </mxCell>
        <mxCell id="ezdXfAVzl4TvzcvULvYs-9" value="" style="endArrow=none;html=1;rounded=0;fillColor=#dae8fc;strokeColor=#6c8ebf;" edge="1" parent="1">
          <mxGeometry width="50" height="50" relative="1" as="geometry">
            <mxPoint x="285" y="855" as="sourcePoint" />
            <mxPoint x="285" y="835" as="targetPoint" />
          </mxGeometry>
        </mxCell>
        <mxCell id="ezdXfAVzl4TvzcvULvYs-10" value="" style="endArrow=none;html=1;rounded=0;fillColor=#dae8fc;strokeColor=#6c8ebf;" edge="1" parent="1">
          <mxGeometry width="50" height="50" relative="1" as="geometry">
            <mxPoint x="284.75" y="855" as="sourcePoint" />
            <mxPoint x="560" y="855" as="targetPoint" />
          </mxGeometry>
        </mxCell>
        <mxCell id="ezdXfAVzl4TvzcvULvYs-11" value="Line0 Subline0" style="text;html=1;align=center;verticalAlign=middle;resizable=0;points=[];autosize=1;strokeColor=#666666;fillColor=#f5f5f5;spacing=0;fontColor=#333333;" vertex="1" parent="1">
          <mxGeometry x="70" y="830" width="95" height="25" as="geometry" />
        </mxCell>
        <mxCell id="ezdXfAVzl4TvzcvULvYs-12" value="" style="endArrow=none;html=1;rounded=0;fillColor=#d5e8d4;strokeColor=#82b366;" edge="1" parent="1">
          <mxGeometry width="50" height="50" relative="1" as="geometry">
            <mxPoint x="160" y="895" as="sourcePoint" />
            <mxPoint x="285" y="895" as="targetPoint" />
          </mxGeometry>
        </mxCell>
        <mxCell id="ezdXfAVzl4TvzcvULvYs-13" value="" style="endArrow=none;html=1;rounded=0;fillColor=#d5e8d4;strokeColor=#82b366;" edge="1" parent="1">
          <mxGeometry width="50" height="50" relative="1" as="geometry">
            <mxPoint x="364.02" y="895" as="sourcePoint" />
            <mxPoint x="364.02" y="875" as="targetPoint" />
          </mxGeometry>
        </mxCell>
        <mxCell id="ezdXfAVzl4TvzcvULvYs-14" value="" style="endArrow=none;html=1;rounded=0;fillColor=#d5e8d4;strokeColor=#82b366;" edge="1" parent="1">
          <mxGeometry width="50" height="50" relative="1" as="geometry">
            <mxPoint x="284.5" y="875" as="sourcePoint" />
            <mxPoint x="364.5" y="875" as="targetPoint" />
          </mxGeometry>
        </mxCell>
        <mxCell id="ezdXfAVzl4TvzcvULvYs-15" value="" style="endArrow=none;html=1;rounded=0;fillColor=#d5e8d4;strokeColor=#82b366;" edge="1" parent="1">
          <mxGeometry width="50" height="50" relative="1" as="geometry">
            <mxPoint x="285" y="895" as="sourcePoint" />
            <mxPoint x="285" y="875" as="targetPoint" />
          </mxGeometry>
        </mxCell>
        <mxCell id="ezdXfAVzl4TvzcvULvYs-16" value="" style="endArrow=none;html=1;rounded=0;fillColor=#d5e8d4;strokeColor=#82b366;" edge="1" parent="1">
          <mxGeometry width="50" height="50" relative="1" as="geometry">
            <mxPoint x="365" y="895" as="sourcePoint" />
            <mxPoint x="560" y="895" as="targetPoint" />
          </mxGeometry>
        </mxCell>
        <mxCell id="ezdXfAVzl4TvzcvULvYs-17" value="Line0 Subline1" style="text;html=1;align=center;verticalAlign=middle;resizable=0;points=[];autosize=1;strokeColor=#666666;fillColor=#f5f5f5;spacing=0;fontColor=#333333;" vertex="1" parent="1">
          <mxGeometry x="70" y="870" width="95" height="25" as="geometry" />
        </mxCell>
        <mxCell id="ezdXfAVzl4TvzcvULvYs-18" value="" style="endArrow=none;html=1;rounded=0;fillColor=#f8cecc;strokeColor=#b85450;" edge="1" parent="1">
          <mxGeometry width="50" height="50" relative="1" as="geometry">
            <mxPoint x="160" y="935" as="sourcePoint" />
            <mxPoint x="365" y="935" as="targetPoint" />
          </mxGeometry>
        </mxCell>
        <mxCell id="ezdXfAVzl4TvzcvULvYs-19" value="" style="endArrow=none;html=1;rounded=0;fillColor=#f8cecc;strokeColor=#b85450;" edge="1" parent="1">
          <mxGeometry width="50" height="50" relative="1" as="geometry">
            <mxPoint x="443.46999999999997" y="935" as="sourcePoint" />
            <mxPoint x="443.46999999999997" y="915" as="targetPoint" />
          </mxGeometry>
        </mxCell>
        <mxCell id="ezdXfAVzl4TvzcvULvYs-20" value="" style="endArrow=none;html=1;rounded=0;fillColor=#f8cecc;strokeColor=#b85450;" edge="1" parent="1">
          <mxGeometry width="50" height="50" relative="1" as="geometry">
            <mxPoint x="363.75" y="915" as="sourcePoint" />
            <mxPoint x="443.75" y="915" as="targetPoint" />
          </mxGeometry>
        </mxCell>
        <mxCell id="ezdXfAVzl4TvzcvULvYs-21" value="" style="endArrow=none;html=1;rounded=0;fillColor=#f8cecc;strokeColor=#b85450;" edge="1" parent="1">
          <mxGeometry width="50" height="50" relative="1" as="geometry">
            <mxPoint x="363.97" y="935" as="sourcePoint" />
            <mxPoint x="363.97" y="915" as="targetPoint" />
          </mxGeometry>
        </mxCell>
        <mxCell id="ezdXfAVzl4TvzcvULvYs-22" value="" style="endArrow=none;html=1;rounded=0;fillColor=#f8cecc;strokeColor=#b85450;" edge="1" parent="1">
          <mxGeometry width="50" height="50" relative="1" as="geometry">
            <mxPoint x="445" y="935" as="sourcePoint" />
            <mxPoint x="560" y="935" as="targetPoint" />
          </mxGeometry>
        </mxCell>
        <mxCell id="ezdXfAVzl4TvzcvULvYs-23" value="Line0 Subline2" style="text;html=1;align=center;verticalAlign=middle;resizable=0;points=[];autosize=1;strokeColor=#666666;fillColor=#f5f5f5;spacing=0;fontColor=#333333;" vertex="1" parent="1">
          <mxGeometry x="70" y="910" width="95" height="25" as="geometry" />
        </mxCell>
        <mxCell id="ezdXfAVzl4TvzcvULvYs-24" value="" style="endArrow=none;html=1;rounded=0;fillColor=#fff2cc;strokeColor=#d6b656;" edge="1" parent="1">
          <mxGeometry width="50" height="50" relative="1" as="geometry">
            <mxPoint x="160" y="975" as="sourcePoint" />
            <mxPoint x="445" y="975" as="targetPoint" />
          </mxGeometry>
        </mxCell>
        <mxCell id="ezdXfAVzl4TvzcvULvYs-25" value="" style="endArrow=none;html=1;rounded=0;fillColor=#fff2cc;strokeColor=#d6b656;" edge="1" parent="1">
          <mxGeometry width="50" height="50" relative="1" as="geometry">
            <mxPoint x="523.25" y="975" as="sourcePoint" />
            <mxPoint x="523.25" y="955" as="targetPoint" />
          </mxGeometry>
        </mxCell>
        <mxCell id="ezdXfAVzl4TvzcvULvYs-26" value="" style="endArrow=none;html=1;rounded=0;fillColor=#fff2cc;strokeColor=#d6b656;" edge="1" parent="1">
          <mxGeometry width="50" height="50" relative="1" as="geometry">
            <mxPoint x="443.25" y="955" as="sourcePoint" />
            <mxPoint x="523.25" y="955" as="targetPoint" />
          </mxGeometry>
        </mxCell>
        <mxCell id="ezdXfAVzl4TvzcvULvYs-27" value="" style="endArrow=none;html=1;rounded=0;fillColor=#fff2cc;strokeColor=#d6b656;" edge="1" parent="1">
          <mxGeometry width="50" height="50" relative="1" as="geometry">
            <mxPoint x="443.52000000000004" y="975" as="sourcePoint" />
            <mxPoint x="443.52000000000004" y="955" as="targetPoint" />
          </mxGeometry>
        </mxCell>
        <mxCell id="ezdXfAVzl4TvzcvULvYs-28" value="" style="endArrow=none;html=1;rounded=0;fillColor=#fff2cc;strokeColor=#d6b656;" edge="1" parent="1">
          <mxGeometry width="50" height="50" relative="1" as="geometry">
            <mxPoint x="525" y="975" as="sourcePoint" />
            <mxPoint x="560" y="975" as="targetPoint" />
          </mxGeometry>
        </mxCell>
        <mxCell id="ezdXfAVzl4TvzcvULvYs-29" value="Line0 Subline3" style="text;html=1;align=center;verticalAlign=middle;resizable=0;points=[];autosize=1;strokeColor=#666666;fillColor=#f5f5f5;spacing=0;fontColor=#333333;" vertex="1" parent="1">
          <mxGeometry x="70" y="950" width="95" height="25" as="geometry" />
        </mxCell>
        <mxCell id="ezdXfAVzl4TvzcvULvYs-30" value="" style="endArrow=none;html=1;rounded=0;fillColor=#fff2cc;strokeColor=#d6b656;" edge="1" parent="1">
          <mxGeometry width="50" height="50" relative="1" as="geometry">
            <mxPoint x="160" y="1015" as="sourcePoint" />
            <mxPoint x="445" y="1015" as="targetPoint" />
          </mxGeometry>
        </mxCell>
        <mxCell id="ezdXfAVzl4TvzcvULvYs-31" value="" style="endArrow=none;html=1;rounded=0;fillColor=#fff2cc;strokeColor=#d6b656;" edge="1" parent="1">
          <mxGeometry width="50" height="50" relative="1" as="geometry">
            <mxPoint x="523.25" y="1015" as="sourcePoint" />
            <mxPoint x="523.25" y="995" as="targetPoint" />
          </mxGeometry>
        </mxCell>
        <mxCell id="ezdXfAVzl4TvzcvULvYs-32" value="" style="endArrow=none;html=1;rounded=0;fillColor=#fff2cc;strokeColor=#d6b656;" edge="1" parent="1">
          <mxGeometry width="50" height="50" relative="1" as="geometry">
            <mxPoint x="443.25" y="995" as="sourcePoint" />
            <mxPoint x="523.25" y="995" as="targetPoint" />
          </mxGeometry>
        </mxCell>
        <mxCell id="ezdXfAVzl4TvzcvULvYs-33" value="" style="endArrow=none;html=1;rounded=0;fillColor=#fff2cc;strokeColor=#d6b656;" edge="1" parent="1">
          <mxGeometry width="50" height="50" relative="1" as="geometry">
            <mxPoint x="443.52000000000004" y="1015" as="sourcePoint" />
            <mxPoint x="443.52000000000004" y="995" as="targetPoint" />
          </mxGeometry>
        </mxCell>
        <mxCell id="ezdXfAVzl4TvzcvULvYs-34" value="" style="endArrow=none;html=1;rounded=0;fillColor=#fff2cc;strokeColor=#d6b656;" edge="1" parent="1">
          <mxGeometry width="50" height="50" relative="1" as="geometry">
            <mxPoint x="525" y="1015" as="sourcePoint" />
            <mxPoint x="560" y="1015" as="targetPoint" />
          </mxGeometry>
        </mxCell>
        <mxCell id="ezdXfAVzl4TvzcvULvYs-35" value="Line1 Subline3" style="text;html=1;align=center;verticalAlign=middle;resizable=0;points=[];autosize=1;strokeColor=#9673a6;fillColor=#e1d5e7;spacing=0;" vertex="1" parent="1">
          <mxGeometry x="70" y="990" width="95" height="25" as="geometry" />
        </mxCell>
        <mxCell id="ezdXfAVzl4TvzcvULvYs-36" value="" style="endArrow=none;html=1;rounded=0;fillColor=#f8cecc;strokeColor=#b85450;" edge="1" parent="1">
          <mxGeometry width="50" height="50" relative="1" as="geometry">
            <mxPoint x="160" y="1050" as="sourcePoint" />
            <mxPoint x="365" y="1050" as="targetPoint" />
          </mxGeometry>
        </mxCell>
        <mxCell id="ezdXfAVzl4TvzcvULvYs-37" value="" style="endArrow=none;html=1;rounded=0;fillColor=#f8cecc;strokeColor=#b85450;" edge="1" parent="1">
          <mxGeometry width="50" height="50" relative="1" as="geometry">
            <mxPoint x="443.46999999999997" y="1050" as="sourcePoint" />
            <mxPoint x="443.46999999999997" y="1030" as="targetPoint" />
          </mxGeometry>
        </mxCell>
        <mxCell id="ezdXfAVzl4TvzcvULvYs-38" value="" style="endArrow=none;html=1;rounded=0;fillColor=#f8cecc;strokeColor=#b85450;" edge="1" parent="1">
          <mxGeometry width="50" height="50" relative="1" as="geometry">
            <mxPoint x="363.75" y="1030" as="sourcePoint" />
            <mxPoint x="443.75" y="1030" as="targetPoint" />
          </mxGeometry>
        </mxCell>
        <mxCell id="ezdXfAVzl4TvzcvULvYs-39" value="" style="endArrow=none;html=1;rounded=0;fillColor=#f8cecc;strokeColor=#b85450;" edge="1" parent="1">
          <mxGeometry width="50" height="50" relative="1" as="geometry">
            <mxPoint x="363.97" y="1050" as="sourcePoint" />
            <mxPoint x="363.97" y="1030" as="targetPoint" />
          </mxGeometry>
        </mxCell>
        <mxCell id="ezdXfAVzl4TvzcvULvYs-40" value="" style="endArrow=none;html=1;rounded=0;fillColor=#f8cecc;strokeColor=#b85450;" edge="1" parent="1">
          <mxGeometry width="50" height="50" relative="1" as="geometry">
            <mxPoint x="445" y="1050" as="sourcePoint" />
            <mxPoint x="560" y="1050" as="targetPoint" />
          </mxGeometry>
        </mxCell>
        <mxCell id="ezdXfAVzl4TvzcvULvYs-41" value="Line1 Subline2" style="text;html=1;align=center;verticalAlign=middle;resizable=0;points=[];autosize=1;strokeColor=#9673a6;fillColor=#e1d5e7;spacing=0;" vertex="1" parent="1">
          <mxGeometry x="70" y="1025" width="95" height="25" as="geometry" />
        </mxCell>
        <mxCell id="ezdXfAVzl4TvzcvULvYs-42" value="" style="endArrow=none;html=1;rounded=0;fillColor=#d5e8d4;strokeColor=#82b366;" edge="1" parent="1">
          <mxGeometry width="50" height="50" relative="1" as="geometry">
            <mxPoint x="160" y="1085" as="sourcePoint" />
            <mxPoint x="285" y="1085" as="targetPoint" />
          </mxGeometry>
        </mxCell>
        <mxCell id="ezdXfAVzl4TvzcvULvYs-43" value="" style="endArrow=none;html=1;rounded=0;fillColor=#d5e8d4;strokeColor=#82b366;" edge="1" parent="1">
          <mxGeometry width="50" height="50" relative="1" as="geometry">
            <mxPoint x="364.02" y="1085" as="sourcePoint" />
            <mxPoint x="364.02" y="1065" as="targetPoint" />
          </mxGeometry>
        </mxCell>
        <mxCell id="ezdXfAVzl4TvzcvULvYs-44" value="" style="endArrow=none;html=1;rounded=0;fillColor=#d5e8d4;strokeColor=#82b366;" edge="1" parent="1">
          <mxGeometry width="50" height="50" relative="1" as="geometry">
            <mxPoint x="284.5" y="1065" as="sourcePoint" />
            <mxPoint x="364.5" y="1065" as="targetPoint" />
          </mxGeometry>
        </mxCell>
        <mxCell id="ezdXfAVzl4TvzcvULvYs-45" value="" style="endArrow=none;html=1;rounded=0;fillColor=#d5e8d4;strokeColor=#82b366;" edge="1" parent="1">
          <mxGeometry width="50" height="50" relative="1" as="geometry">
            <mxPoint x="285" y="1085" as="sourcePoint" />
            <mxPoint x="285" y="1065" as="targetPoint" />
          </mxGeometry>
        </mxCell>
        <mxCell id="ezdXfAVzl4TvzcvULvYs-46" value="" style="endArrow=none;html=1;rounded=0;fillColor=#d5e8d4;strokeColor=#82b366;" edge="1" parent="1">
          <mxGeometry width="50" height="50" relative="1" as="geometry">
            <mxPoint x="365" y="1085" as="sourcePoint" />
            <mxPoint x="560" y="1085" as="targetPoint" />
          </mxGeometry>
        </mxCell>
        <mxCell id="ezdXfAVzl4TvzcvULvYs-47" value="Line1 Subline1" style="text;html=1;align=center;verticalAlign=middle;resizable=0;points=[];autosize=1;strokeColor=#9673a6;fillColor=#e1d5e7;spacing=0;" vertex="1" parent="1">
          <mxGeometry x="70" y="1060" width="95" height="25" as="geometry" />
        </mxCell>
        <mxCell id="ezdXfAVzl4TvzcvULvYs-48" value="" style="endArrow=none;html=1;rounded=0;fillColor=#dae8fc;strokeColor=#6c8ebf;" edge="1" parent="1">
          <mxGeometry width="50" height="50" relative="1" as="geometry">
            <mxPoint x="160" y="1120" as="sourcePoint" />
            <mxPoint x="205" y="1120" as="targetPoint" />
          </mxGeometry>
        </mxCell>
        <mxCell id="ezdXfAVzl4TvzcvULvYs-49" value="" style="endArrow=none;html=1;rounded=0;fillColor=#dae8fc;strokeColor=#6c8ebf;" edge="1" parent="1">
          <mxGeometry width="50" height="50" relative="1" as="geometry">
            <mxPoint x="205" y="1120" as="sourcePoint" />
            <mxPoint x="205" y="1100" as="targetPoint" />
          </mxGeometry>
        </mxCell>
        <mxCell id="ezdXfAVzl4TvzcvULvYs-50" value="" style="endArrow=none;html=1;rounded=0;fillColor=#dae8fc;strokeColor=#6c8ebf;" edge="1" parent="1">
          <mxGeometry width="50" height="50" relative="1" as="geometry">
            <mxPoint x="205.25" y="1100" as="sourcePoint" />
            <mxPoint x="285.25" y="1100" as="targetPoint" />
          </mxGeometry>
        </mxCell>
        <mxCell id="ezdXfAVzl4TvzcvULvYs-51" value="" style="endArrow=none;html=1;rounded=0;fillColor=#dae8fc;strokeColor=#6c8ebf;" edge="1" parent="1">
          <mxGeometry width="50" height="50" relative="1" as="geometry">
            <mxPoint x="285" y="1120" as="sourcePoint" />
            <mxPoint x="285" y="1100" as="targetPoint" />
          </mxGeometry>
        </mxCell>
        <mxCell id="ezdXfAVzl4TvzcvULvYs-52" value="" style="endArrow=none;html=1;rounded=0;fillColor=#dae8fc;strokeColor=#6c8ebf;" edge="1" parent="1">
          <mxGeometry width="50" height="50" relative="1" as="geometry">
            <mxPoint x="284.75" y="1120" as="sourcePoint" />
            <mxPoint x="560" y="1120" as="targetPoint" />
          </mxGeometry>
        </mxCell>
        <mxCell id="ezdXfAVzl4TvzcvULvYs-53" value="Line1 Subline0" style="text;html=1;align=center;verticalAlign=middle;resizable=0;points=[];autosize=1;strokeColor=#9673a6;fillColor=#e1d5e7;spacing=0;" vertex="1" parent="1">
          <mxGeometry x="70" y="1095" width="95" height="25" as="geometry" />
        </mxCell>
        <mxCell id="ezdXfAVzl4TvzcvULvYs-54" value="" style="endArrow=classic;html=1;rounded=0;fillColor=#dae8fc;strokeColor=#6c8ebf;" edge="1" parent="1">
          <mxGeometry width="50" height="50" relative="1" as="geometry">
            <mxPoint x="232" y="835" as="sourcePoint" />
            <mxPoint x="231.5" y="805" as="targetPoint" />
          </mxGeometry>
        </mxCell>
        <mxCell id="ezdXfAVzl4TvzcvULvYs-55" value="" style="endArrow=classic;html=1;rounded=0;entryX=0.641;entryY=1.057;entryDx=0;entryDy=0;entryPerimeter=0;fillColor=#dae8fc;strokeColor=#6c8ebf;" edge="1" parent="1" target="ezdXfAVzl4TvzcvULvYs-1">
          <mxGeometry width="50" height="50" relative="1" as="geometry">
            <mxPoint x="255" y="1100" as="sourcePoint" />
            <mxPoint x="80" y="905" as="targetPoint" />
          </mxGeometry>
        </mxCell>
        <mxCell id="ezdXfAVzl4TvzcvULvYs-56" value="" style="endArrow=classic;html=1;rounded=0;entryX=0.25;entryY=1;entryDx=0;entryDy=0;fillColor=#d5e8d4;strokeColor=#82b366;" edge="1" parent="1" target="ezdXfAVzl4TvzcvULvYs-2">
          <mxGeometry width="50" height="50" relative="1" as="geometry">
            <mxPoint x="305" y="875" as="sourcePoint" />
            <mxPoint x="355" y="820" as="targetPoint" />
          </mxGeometry>
        </mxCell>
        <mxCell id="ezdXfAVzl4TvzcvULvYs-57" value="" style="endArrow=classic;html=1;rounded=0;entryX=0.25;entryY=1;entryDx=0;entryDy=0;fillColor=#d5e8d4;strokeColor=#82b366;" edge="1" parent="1">
          <mxGeometry width="50" height="50" relative="1" as="geometry">
            <mxPoint x="340" y="1065" as="sourcePoint" />
            <mxPoint x="340" y="805" as="targetPoint" />
          </mxGeometry>
        </mxCell>
        <mxCell id="ezdXfAVzl4TvzcvULvYs-58" value="" style="endArrow=classic;html=1;rounded=0;entryX=0.25;entryY=1;entryDx=0;entryDy=0;fillColor=#f8cecc;strokeColor=#b85450;" edge="1" parent="1">
          <mxGeometry width="50" height="50" relative="1" as="geometry">
            <mxPoint x="391" y="915" as="sourcePoint" />
            <mxPoint x="390.52" y="805" as="targetPoint" />
          </mxGeometry>
        </mxCell>
        <mxCell id="ezdXfAVzl4TvzcvULvYs-59" value="" style="endArrow=classic;html=1;rounded=0;entryX=0.25;entryY=1;entryDx=0;entryDy=0;fillColor=#f8cecc;strokeColor=#b85450;" edge="1" parent="1">
          <mxGeometry width="50" height="50" relative="1" as="geometry">
            <mxPoint x="420" y="1030" as="sourcePoint" />
            <mxPoint x="420" y="805" as="targetPoint" />
          </mxGeometry>
        </mxCell>
        <mxCell id="ezdXfAVzl4TvzcvULvYs-60" value="" style="endArrow=classic;html=1;rounded=0;entryX=0.25;entryY=1;entryDx=0;entryDy=0;fillColor=#fff2cc;strokeColor=#d6b656;" edge="1" parent="1">
          <mxGeometry width="50" height="50" relative="1" as="geometry">
            <mxPoint x="460" y="955" as="sourcePoint" />
            <mxPoint x="460" y="805" as="targetPoint" />
          </mxGeometry>
        </mxCell>
        <mxCell id="ezdXfAVzl4TvzcvULvYs-61" value="" style="endArrow=classic;html=1;rounded=0;entryX=0.25;entryY=1;entryDx=0;entryDy=0;fillColor=#fff2cc;strokeColor=#d6b656;" edge="1" parent="1">
          <mxGeometry width="50" height="50" relative="1" as="geometry">
            <mxPoint x="500" y="995" as="sourcePoint" />
            <mxPoint x="500" y="805" as="targetPoint" />
          </mxGeometry>
        </mxCell>
        <mxCell id="UTGmpDQ5iz4gnATFPXTR-1" value="SRAM space" style="text;html=1;align=center;verticalAlign=middle;resizable=0;points=[];autosize=1;strokeColor=none;fillColor=none;spacing=0;" vertex="1" parent="1">
          <mxGeometry x="678" y="790" width="85" height="25" as="geometry" />
        </mxCell>
        <mxCell id="UTGmpDQ5iz4gnATFPXTR-2" value="S0" style="rounded=0;whiteSpace=wrap;html=1;fillColor=#dae8fc;strokeColor=#6c8ebf;" vertex="1" parent="1">
          <mxGeometry x="770.25" y="794.5" width="79.5" height="15" as="geometry" />
        </mxCell>
        <mxCell id="UTGmpDQ5iz4gnATFPXTR-3" value="S1" style="rounded=0;whiteSpace=wrap;html=1;fillColor=#d5e8d4;strokeColor=#82b366;" vertex="1" parent="1">
          <mxGeometry x="849.75" y="794.5" width="79.5" height="15" as="geometry" />
        </mxCell>
        <mxCell id="UTGmpDQ5iz4gnATFPXTR-4" value="S2" style="rounded=0;whiteSpace=wrap;html=1;fillColor=#f8cecc;strokeColor=#b85450;" vertex="1" parent="1">
          <mxGeometry x="929.25" y="794.5" width="79.5" height="15" as="geometry" />
        </mxCell>
        <mxCell id="UTGmpDQ5iz4gnATFPXTR-5" value="S3" style="rounded=0;whiteSpace=wrap;html=1;fillColor=#fff2cc;strokeColor=#d6b656;" vertex="1" parent="1">
          <mxGeometry x="1008.75" y="794.5" width="79.5" height="15" as="geometry" />
        </mxCell>
        <mxCell id="UTGmpDQ5iz4gnATFPXTR-6" value="" style="endArrow=none;html=1;rounded=0;fillColor=#dae8fc;strokeColor=#6c8ebf;" edge="1" parent="1">
          <mxGeometry width="50" height="50" relative="1" as="geometry">
            <mxPoint x="725" y="859.5" as="sourcePoint" />
            <mxPoint x="770" y="859.5" as="targetPoint" />
          </mxGeometry>
        </mxCell>
        <mxCell id="UTGmpDQ5iz4gnATFPXTR-7" value="" style="endArrow=none;html=1;rounded=0;fillColor=#dae8fc;strokeColor=#6c8ebf;" edge="1" parent="1">
          <mxGeometry width="50" height="50" relative="1" as="geometry">
            <mxPoint x="770" y="859.5" as="sourcePoint" />
            <mxPoint x="770" y="839.5" as="targetPoint" />
          </mxGeometry>
        </mxCell>
        <mxCell id="UTGmpDQ5iz4gnATFPXTR-8" value="" style="endArrow=none;html=1;rounded=0;fillColor=#dae8fc;strokeColor=#6c8ebf;" edge="1" parent="1">
          <mxGeometry width="50" height="50" relative="1" as="geometry">
            <mxPoint x="770.25" y="839.5" as="sourcePoint" />
            <mxPoint x="850.25" y="839.5" as="targetPoint" />
          </mxGeometry>
        </mxCell>
        <mxCell id="UTGmpDQ5iz4gnATFPXTR-9" value="" style="endArrow=none;html=1;rounded=0;fillColor=#dae8fc;strokeColor=#6c8ebf;" edge="1" parent="1">
          <mxGeometry width="50" height="50" relative="1" as="geometry">
            <mxPoint x="850" y="859.5" as="sourcePoint" />
            <mxPoint x="850" y="839.5" as="targetPoint" />
          </mxGeometry>
        </mxCell>
        <mxCell id="UTGmpDQ5iz4gnATFPXTR-10" value="" style="endArrow=none;html=1;rounded=0;fillColor=#dae8fc;strokeColor=#6c8ebf;" edge="1" parent="1">
          <mxGeometry width="50" height="50" relative="1" as="geometry">
            <mxPoint x="849.75" y="859.5" as="sourcePoint" />
            <mxPoint x="1125" y="859.5" as="targetPoint" />
          </mxGeometry>
        </mxCell>
        <mxCell id="UTGmpDQ5iz4gnATFPXTR-11" value="Line0 Subline0" style="text;html=1;align=center;verticalAlign=middle;resizable=0;points=[];autosize=1;strokeColor=#666666;fillColor=#f5f5f5;spacing=0;fontColor=#333333;" vertex="1" parent="1">
          <mxGeometry x="635" y="834.5" width="95" height="25" as="geometry" />
        </mxCell>
        <mxCell id="UTGmpDQ5iz4gnATFPXTR-12" value="" style="endArrow=none;html=1;rounded=0;fillColor=#d5e8d4;strokeColor=#82b366;" edge="1" parent="1">
          <mxGeometry width="50" height="50" relative="1" as="geometry">
            <mxPoint x="725" y="899.5" as="sourcePoint" />
            <mxPoint x="770" y="900" as="targetPoint" />
          </mxGeometry>
        </mxCell>
        <mxCell id="UTGmpDQ5iz4gnATFPXTR-13" value="" style="endArrow=none;html=1;rounded=0;fillColor=#d5e8d4;strokeColor=#82b366;" edge="1" parent="1">
          <mxGeometry width="50" height="50" relative="1" as="geometry">
            <mxPoint x="849.3199999999999" y="899.5" as="sourcePoint" />
            <mxPoint x="849.3199999999999" y="879.5" as="targetPoint" />
          </mxGeometry>
        </mxCell>
        <mxCell id="UTGmpDQ5iz4gnATFPXTR-14" value="" style="endArrow=none;html=1;rounded=0;fillColor=#d5e8d4;strokeColor=#82b366;" edge="1" parent="1">
          <mxGeometry width="50" height="50" relative="1" as="geometry">
            <mxPoint x="769.75" y="879.5" as="sourcePoint" />
            <mxPoint x="849.75" y="879.5" as="targetPoint" />
          </mxGeometry>
        </mxCell>
        <mxCell id="UTGmpDQ5iz4gnATFPXTR-15" value="" style="endArrow=none;html=1;rounded=0;fillColor=#d5e8d4;strokeColor=#82b366;" edge="1" parent="1">
          <mxGeometry width="50" height="50" relative="1" as="geometry">
            <mxPoint x="770.25" y="900" as="sourcePoint" />
            <mxPoint x="770.25" y="880" as="targetPoint" />
          </mxGeometry>
        </mxCell>
        <mxCell id="UTGmpDQ5iz4gnATFPXTR-16" value="" style="endArrow=none;html=1;rounded=0;fillColor=#d5e8d4;strokeColor=#82b366;" edge="1" parent="1">
          <mxGeometry width="50" height="50" relative="1" as="geometry">
            <mxPoint x="850" y="900" as="sourcePoint" />
            <mxPoint x="1125" y="899.5" as="targetPoint" />
          </mxGeometry>
        </mxCell>
        <mxCell id="UTGmpDQ5iz4gnATFPXTR-17" value="Line0 Subline1" style="text;html=1;align=center;verticalAlign=middle;resizable=0;points=[];autosize=1;strokeColor=#666666;fillColor=#f5f5f5;spacing=0;fontColor=#333333;" vertex="1" parent="1">
          <mxGeometry x="635" y="874.5" width="95" height="25" as="geometry" />
        </mxCell>
        <mxCell id="UTGmpDQ5iz4gnATFPXTR-18" value="" style="endArrow=none;html=1;rounded=0;fillColor=#f8cecc;strokeColor=#b85450;" edge="1" parent="1">
          <mxGeometry width="50" height="50" relative="1" as="geometry">
            <mxPoint x="725" y="939.5" as="sourcePoint" />
            <mxPoint x="770" y="940" as="targetPoint" />
          </mxGeometry>
        </mxCell>
        <mxCell id="UTGmpDQ5iz4gnATFPXTR-19" value="" style="endArrow=none;html=1;rounded=0;fillColor=#f8cecc;strokeColor=#b85450;" edge="1" parent="1">
          <mxGeometry width="50" height="50" relative="1" as="geometry">
            <mxPoint x="849.32" y="939.5" as="sourcePoint" />
            <mxPoint x="849.32" y="919.5" as="targetPoint" />
          </mxGeometry>
        </mxCell>
        <mxCell id="UTGmpDQ5iz4gnATFPXTR-20" value="" style="endArrow=none;html=1;rounded=0;fillColor=#f8cecc;strokeColor=#b85450;" edge="1" parent="1">
          <mxGeometry width="50" height="50" relative="1" as="geometry">
            <mxPoint x="770.25" y="919.5" as="sourcePoint" />
            <mxPoint x="850.25" y="919.5" as="targetPoint" />
          </mxGeometry>
        </mxCell>
        <mxCell id="UTGmpDQ5iz4gnATFPXTR-21" value="" style="endArrow=none;html=1;rounded=0;fillColor=#f8cecc;strokeColor=#b85450;" edge="1" parent="1">
          <mxGeometry width="50" height="50" relative="1" as="geometry">
            <mxPoint x="770.25" y="939.5" as="sourcePoint" />
            <mxPoint x="770.25" y="919.5" as="targetPoint" />
          </mxGeometry>
        </mxCell>
        <mxCell id="UTGmpDQ5iz4gnATFPXTR-22" value="" style="endArrow=none;html=1;rounded=0;fillColor=#f8cecc;strokeColor=#b85450;" edge="1" parent="1">
          <mxGeometry width="50" height="50" relative="1" as="geometry">
            <mxPoint x="850" y="940" as="sourcePoint" />
            <mxPoint x="1125" y="939.5" as="targetPoint" />
          </mxGeometry>
        </mxCell>
        <mxCell id="UTGmpDQ5iz4gnATFPXTR-23" value="Line0 Subline2" style="text;html=1;align=center;verticalAlign=middle;resizable=0;points=[];autosize=1;strokeColor=#666666;fillColor=#f5f5f5;spacing=0;fontColor=#333333;" vertex="1" parent="1">
          <mxGeometry x="635" y="914.5" width="95" height="25" as="geometry" />
        </mxCell>
        <mxCell id="UTGmpDQ5iz4gnATFPXTR-24" value="" style="endArrow=none;html=1;rounded=0;fillColor=#fff2cc;strokeColor=#d6b656;" edge="1" parent="1">
          <mxGeometry width="50" height="50" relative="1" as="geometry">
            <mxPoint x="725" y="979.5" as="sourcePoint" />
            <mxPoint x="770" y="980" as="targetPoint" />
          </mxGeometry>
        </mxCell>
        <mxCell id="UTGmpDQ5iz4gnATFPXTR-25" value="" style="endArrow=none;html=1;rounded=0;fillColor=#fff2cc;strokeColor=#d6b656;" edge="1" parent="1">
          <mxGeometry width="50" height="50" relative="1" as="geometry">
            <mxPoint x="849.39" y="979.5" as="sourcePoint" />
            <mxPoint x="849.39" y="959.5" as="targetPoint" />
          </mxGeometry>
        </mxCell>
        <mxCell id="UTGmpDQ5iz4gnATFPXTR-26" value="" style="endArrow=none;html=1;rounded=0;fillColor=#fff2cc;strokeColor=#d6b656;" edge="1" parent="1">
          <mxGeometry width="50" height="50" relative="1" as="geometry">
            <mxPoint x="770.25" y="959.5" as="sourcePoint" />
            <mxPoint x="850.25" y="959.5" as="targetPoint" />
          </mxGeometry>
        </mxCell>
        <mxCell id="UTGmpDQ5iz4gnATFPXTR-27" value="" style="endArrow=none;html=1;rounded=0;fillColor=#fff2cc;strokeColor=#d6b656;" edge="1" parent="1">
          <mxGeometry width="50" height="50" relative="1" as="geometry">
            <mxPoint x="770.25" y="979.5" as="sourcePoint" />
            <mxPoint x="770.25" y="959.5" as="targetPoint" />
          </mxGeometry>
        </mxCell>
        <mxCell id="UTGmpDQ5iz4gnATFPXTR-28" value="" style="endArrow=none;html=1;rounded=0;fillColor=#fff2cc;strokeColor=#d6b656;" edge="1" parent="1">
          <mxGeometry width="50" height="50" relative="1" as="geometry">
            <mxPoint x="850" y="980" as="sourcePoint" />
            <mxPoint x="1125" y="979.5" as="targetPoint" />
          </mxGeometry>
        </mxCell>
        <mxCell id="UTGmpDQ5iz4gnATFPXTR-29" value="Line0 Subline3" style="text;html=1;align=center;verticalAlign=middle;resizable=0;points=[];autosize=1;strokeColor=#666666;fillColor=#f5f5f5;spacing=0;fontColor=#333333;" vertex="1" parent="1">
          <mxGeometry x="635" y="954.5" width="95" height="25" as="geometry" />
        </mxCell>
        <mxCell id="UTGmpDQ5iz4gnATFPXTR-30" value="" style="endArrow=none;html=1;rounded=0;fillColor=#fff2cc;strokeColor=#d6b656;" edge="1" parent="1">
          <mxGeometry width="50" height="50" relative="1" as="geometry">
            <mxPoint x="725" y="1019.5" as="sourcePoint" />
            <mxPoint x="770" y="1020" as="targetPoint" />
          </mxGeometry>
        </mxCell>
        <mxCell id="UTGmpDQ5iz4gnATFPXTR-31" value="" style="endArrow=none;html=1;rounded=0;fillColor=#fff2cc;strokeColor=#d6b656;" edge="1" parent="1">
          <mxGeometry width="50" height="50" relative="1" as="geometry">
            <mxPoint x="849.39" y="1019.5" as="sourcePoint" />
            <mxPoint x="849.39" y="999.5" as="targetPoint" />
          </mxGeometry>
        </mxCell>
        <mxCell id="UTGmpDQ5iz4gnATFPXTR-32" value="" style="endArrow=none;html=1;rounded=0;fillColor=#fff2cc;strokeColor=#d6b656;" edge="1" parent="1">
          <mxGeometry width="50" height="50" relative="1" as="geometry">
            <mxPoint x="770.25" y="999.5" as="sourcePoint" />
            <mxPoint x="850.25" y="999.5" as="targetPoint" />
          </mxGeometry>
        </mxCell>
        <mxCell id="UTGmpDQ5iz4gnATFPXTR-33" value="" style="endArrow=none;html=1;rounded=0;fillColor=#fff2cc;strokeColor=#d6b656;" edge="1" parent="1">
          <mxGeometry width="50" height="50" relative="1" as="geometry">
            <mxPoint x="770.25" y="1019.5" as="sourcePoint" />
            <mxPoint x="770.25" y="999.5" as="targetPoint" />
          </mxGeometry>
        </mxCell>
        <mxCell id="UTGmpDQ5iz4gnATFPXTR-34" value="" style="endArrow=none;html=1;rounded=0;fillColor=#fff2cc;strokeColor=#d6b656;" edge="1" parent="1">
          <mxGeometry width="50" height="50" relative="1" as="geometry">
            <mxPoint x="850" y="1020" as="sourcePoint" />
            <mxPoint x="1125" y="1019.5" as="targetPoint" />
          </mxGeometry>
        </mxCell>
        <mxCell id="UTGmpDQ5iz4gnATFPXTR-35" value="Line1 Subline3" style="text;html=1;align=center;verticalAlign=middle;resizable=0;points=[];autosize=1;strokeColor=#9673a6;fillColor=#e1d5e7;spacing=0;" vertex="1" parent="1">
          <mxGeometry x="635" y="994.5" width="95" height="25" as="geometry" />
        </mxCell>
        <mxCell id="UTGmpDQ5iz4gnATFPXTR-36" value="" style="endArrow=none;html=1;rounded=0;fillColor=#f8cecc;strokeColor=#b85450;" edge="1" parent="1">
          <mxGeometry width="50" height="50" relative="1" as="geometry">
            <mxPoint x="725" y="1054.5" as="sourcePoint" />
            <mxPoint x="770" y="1055" as="targetPoint" />
          </mxGeometry>
        </mxCell>
        <mxCell id="UTGmpDQ5iz4gnATFPXTR-37" value="" style="endArrow=none;html=1;rounded=0;fillColor=#f8cecc;strokeColor=#b85450;" edge="1" parent="1">
          <mxGeometry width="50" height="50" relative="1" as="geometry">
            <mxPoint x="849.39" y="1054.5" as="sourcePoint" />
            <mxPoint x="849.39" y="1034.5" as="targetPoint" />
          </mxGeometry>
        </mxCell>
        <mxCell id="UTGmpDQ5iz4gnATFPXTR-38" value="" style="endArrow=none;html=1;rounded=0;fillColor=#f8cecc;strokeColor=#b85450;" edge="1" parent="1">
          <mxGeometry width="50" height="50" relative="1" as="geometry">
            <mxPoint x="770.25" y="1034.5" as="sourcePoint" />
            <mxPoint x="850.25" y="1034.5" as="targetPoint" />
          </mxGeometry>
        </mxCell>
        <mxCell id="UTGmpDQ5iz4gnATFPXTR-39" value="" style="endArrow=none;html=1;rounded=0;fillColor=#f8cecc;strokeColor=#b85450;" edge="1" parent="1">
          <mxGeometry width="50" height="50" relative="1" as="geometry">
            <mxPoint x="770.25" y="1054.5" as="sourcePoint" />
            <mxPoint x="770.25" y="1034.5" as="targetPoint" />
          </mxGeometry>
        </mxCell>
        <mxCell id="UTGmpDQ5iz4gnATFPXTR-40" value="" style="endArrow=none;html=1;rounded=0;fillColor=#f8cecc;strokeColor=#b85450;" edge="1" parent="1">
          <mxGeometry width="50" height="50" relative="1" as="geometry">
            <mxPoint x="850" y="1055" as="sourcePoint" />
            <mxPoint x="1125" y="1054.5" as="targetPoint" />
          </mxGeometry>
        </mxCell>
        <mxCell id="UTGmpDQ5iz4gnATFPXTR-41" value="Line1 Subline2" style="text;html=1;align=center;verticalAlign=middle;resizable=0;points=[];autosize=1;strokeColor=#9673a6;fillColor=#e1d5e7;spacing=0;" vertex="1" parent="1">
          <mxGeometry x="635" y="1029.5" width="95" height="25" as="geometry" />
        </mxCell>
        <mxCell id="UTGmpDQ5iz4gnATFPXTR-42" value="" style="endArrow=none;html=1;rounded=0;fillColor=#d5e8d4;strokeColor=#82b366;" edge="1" parent="1">
          <mxGeometry width="50" height="50" relative="1" as="geometry">
            <mxPoint x="725" y="1089.5" as="sourcePoint" />
            <mxPoint x="770" y="1090" as="targetPoint" />
          </mxGeometry>
        </mxCell>
        <mxCell id="UTGmpDQ5iz4gnATFPXTR-43" value="" style="endArrow=none;html=1;rounded=0;fillColor=#d5e8d4;strokeColor=#82b366;" edge="1" parent="1">
          <mxGeometry width="50" height="50" relative="1" as="geometry">
            <mxPoint x="849.75" y="1089.5" as="sourcePoint" />
            <mxPoint x="849.75" y="1069.5" as="targetPoint" />
          </mxGeometry>
        </mxCell>
        <mxCell id="UTGmpDQ5iz4gnATFPXTR-44" value="" style="endArrow=none;html=1;rounded=0;fillColor=#d5e8d4;strokeColor=#82b366;" edge="1" parent="1">
          <mxGeometry width="50" height="50" relative="1" as="geometry">
            <mxPoint x="769.75" y="1069.5" as="sourcePoint" />
            <mxPoint x="849.75" y="1069.5" as="targetPoint" />
          </mxGeometry>
        </mxCell>
        <mxCell id="UTGmpDQ5iz4gnATFPXTR-45" value="" style="endArrow=none;html=1;rounded=0;fillColor=#d5e8d4;strokeColor=#82b366;" edge="1" parent="1">
          <mxGeometry width="50" height="50" relative="1" as="geometry">
            <mxPoint x="770.25" y="1089.5" as="sourcePoint" />
            <mxPoint x="770.25" y="1069.5" as="targetPoint" />
          </mxGeometry>
        </mxCell>
        <mxCell id="UTGmpDQ5iz4gnATFPXTR-46" value="" style="endArrow=none;html=1;rounded=0;fillColor=#d5e8d4;strokeColor=#82b366;" edge="1" parent="1">
          <mxGeometry width="50" height="50" relative="1" as="geometry">
            <mxPoint x="850" y="1090" as="sourcePoint" />
            <mxPoint x="1125" y="1089.5" as="targetPoint" />
          </mxGeometry>
        </mxCell>
        <mxCell id="UTGmpDQ5iz4gnATFPXTR-47" value="Line1 Subline1" style="text;html=1;align=center;verticalAlign=middle;resizable=0;points=[];autosize=1;strokeColor=#9673a6;fillColor=#e1d5e7;spacing=0;" vertex="1" parent="1">
          <mxGeometry x="635" y="1064.5" width="95" height="25" as="geometry" />
        </mxCell>
        <mxCell id="UTGmpDQ5iz4gnATFPXTR-48" value="" style="endArrow=none;html=1;rounded=0;fillColor=#dae8fc;strokeColor=#6c8ebf;" edge="1" parent="1">
          <mxGeometry width="50" height="50" relative="1" as="geometry">
            <mxPoint x="725" y="1124.5" as="sourcePoint" />
            <mxPoint x="770" y="1124.5" as="targetPoint" />
          </mxGeometry>
        </mxCell>
        <mxCell id="UTGmpDQ5iz4gnATFPXTR-49" value="" style="endArrow=none;html=1;rounded=0;fillColor=#dae8fc;strokeColor=#6c8ebf;" edge="1" parent="1">
          <mxGeometry width="50" height="50" relative="1" as="geometry">
            <mxPoint x="770" y="1124.5" as="sourcePoint" />
            <mxPoint x="770" y="1104.5" as="targetPoint" />
          </mxGeometry>
        </mxCell>
        <mxCell id="UTGmpDQ5iz4gnATFPXTR-50" value="" style="endArrow=none;html=1;rounded=0;fillColor=#dae8fc;strokeColor=#6c8ebf;" edge="1" parent="1">
          <mxGeometry width="50" height="50" relative="1" as="geometry">
            <mxPoint x="770.25" y="1104.5" as="sourcePoint" />
            <mxPoint x="850.25" y="1104.5" as="targetPoint" />
          </mxGeometry>
        </mxCell>
        <mxCell id="UTGmpDQ5iz4gnATFPXTR-51" value="" style="endArrow=none;html=1;rounded=0;fillColor=#dae8fc;strokeColor=#6c8ebf;" edge="1" parent="1">
          <mxGeometry width="50" height="50" relative="1" as="geometry">
            <mxPoint x="850" y="1124.5" as="sourcePoint" />
            <mxPoint x="850" y="1104.5" as="targetPoint" />
          </mxGeometry>
        </mxCell>
        <mxCell id="UTGmpDQ5iz4gnATFPXTR-52" value="" style="endArrow=none;html=1;rounded=0;fillColor=#dae8fc;strokeColor=#6c8ebf;" edge="1" parent="1">
          <mxGeometry width="50" height="50" relative="1" as="geometry">
            <mxPoint x="849.75" y="1124.5" as="sourcePoint" />
            <mxPoint x="1125" y="1124.5" as="targetPoint" />
          </mxGeometry>
        </mxCell>
        <mxCell id="UTGmpDQ5iz4gnATFPXTR-53" value="Line1 Subline0" style="text;html=1;align=center;verticalAlign=middle;resizable=0;points=[];autosize=1;strokeColor=#9673a6;fillColor=#e1d5e7;spacing=0;" vertex="1" parent="1">
          <mxGeometry x="635" y="1099.5" width="95" height="25" as="geometry" />
        </mxCell>
        <mxCell id="UTGmpDQ5iz4gnATFPXTR-54" value="" style="endArrow=classic;html=1;rounded=0;fillColor=#dae8fc;strokeColor=#6c8ebf;" edge="1" parent="1">
          <mxGeometry width="50" height="50" relative="1" as="geometry">
            <mxPoint x="775.5" y="839.5" as="sourcePoint" />
            <mxPoint x="775" y="809.5" as="targetPoint" />
          </mxGeometry>
        </mxCell>
        <mxCell id="UTGmpDQ5iz4gnATFPXTR-55" value="" style="endArrow=classic;html=1;rounded=0;entryX=0.641;entryY=1.057;entryDx=0;entryDy=0;entryPerimeter=0;fillColor=#dae8fc;strokeColor=#6c8ebf;" edge="1" parent="1">
          <mxGeometry width="50" height="50" relative="1" as="geometry">
            <mxPoint x="815" y="1103.65" as="sourcePoint" />
            <mxPoint x="816.2095000000002" y="809.505" as="targetPoint" />
          </mxGeometry>
        </mxCell>
        <mxCell id="UTGmpDQ5iz4gnATFPXTR-56" value="" style="endArrow=classic;html=1;rounded=0;entryX=0.25;entryY=1;entryDx=0;entryDy=0;fillColor=#d5e8d4;strokeColor=#82b366;" edge="1" parent="1">
          <mxGeometry width="50" height="50" relative="1" as="geometry">
            <mxPoint x="785.38" y="879.5" as="sourcePoint" />
            <mxPoint x="785.005" y="809.5" as="targetPoint" />
          </mxGeometry>
        </mxCell>
        <mxCell id="UTGmpDQ5iz4gnATFPXTR-57" value="" style="endArrow=classic;html=1;rounded=0;entryX=0.25;entryY=1;entryDx=0;entryDy=0;fillColor=#d5e8d4;strokeColor=#82b366;" edge="1" parent="1">
          <mxGeometry width="50" height="50" relative="1" as="geometry">
            <mxPoint x="825" y="1070.5" as="sourcePoint" />
            <mxPoint x="825" y="810.5" as="targetPoint" />
          </mxGeometry>
        </mxCell>
        <mxCell id="UTGmpDQ5iz4gnATFPXTR-58" value="" style="endArrow=classic;html=1;rounded=0;entryX=0.25;entryY=1;entryDx=0;entryDy=0;fillColor=#f8cecc;strokeColor=#b85450;" edge="1" parent="1">
          <mxGeometry width="50" height="50" relative="1" as="geometry">
            <mxPoint x="795.48" y="920.5" as="sourcePoint" />
            <mxPoint x="795" y="810.5" as="targetPoint" />
          </mxGeometry>
        </mxCell>
        <mxCell id="UTGmpDQ5iz4gnATFPXTR-59" value="" style="endArrow=classic;html=1;rounded=0;entryX=0.25;entryY=1;entryDx=0;entryDy=0;fillColor=#f8cecc;strokeColor=#b85450;" edge="1" parent="1">
          <mxGeometry width="50" height="50" relative="1" as="geometry">
            <mxPoint x="835" y="1035.5" as="sourcePoint" />
            <mxPoint x="835" y="810.5" as="targetPoint" />
          </mxGeometry>
        </mxCell>
        <mxCell id="UTGmpDQ5iz4gnATFPXTR-60" value="" style="endArrow=classic;html=1;rounded=0;entryX=0.25;entryY=1;entryDx=0;entryDy=0;fillColor=#fff2cc;strokeColor=#d6b656;" edge="1" parent="1">
          <mxGeometry width="50" height="50" relative="1" as="geometry">
            <mxPoint x="805" y="959.5" as="sourcePoint" />
            <mxPoint x="805" y="809.5" as="targetPoint" />
          </mxGeometry>
        </mxCell>
        <mxCell id="UTGmpDQ5iz4gnATFPXTR-61" value="" style="endArrow=classic;html=1;rounded=0;entryX=0.25;entryY=1;entryDx=0;entryDy=0;fillColor=#fff2cc;strokeColor=#d6b656;" edge="1" parent="1">
          <mxGeometry width="50" height="50" relative="1" as="geometry">
            <mxPoint x="845" y="1000.5" as="sourcePoint" />
            <mxPoint x="845" y="810.5" as="targetPoint" />
          </mxGeometry>
        </mxCell>
        <mxCell id="HIkEoBBDDZ9_464_qA2W-1" value="WeightArray" style="whiteSpace=wrap;align=center;verticalAlign=middle;fontStyle=1;strokeWidth=3;fillColor=#FFFFCC;spacing=2;" vertex="1" parent="1">
          <mxGeometry x="220" y="410" width="90" height="40" as="geometry" />
        </mxCell>
        <mxCell id="HIkEoBBDDZ9_464_qA2W-2" style="edgeStyle=orthogonalEdgeStyle;rounded=1;orthogonalLoop=1;jettySize=auto;html=1;exitX=0;exitY=0.5;exitDx=0;exitDy=0;endArrow=none;startArrow=classic;startFill=1;endFill=0;strokeColor=#990000;strokeWidth=2;" edge="1" parent="1" source="HIkEoBBDDZ9_464_qA2W-1">
          <mxGeometry relative="1" as="geometry">
            <mxPoint x="170" y="140" as="targetPoint" />
            <mxPoint x="220" y="364" as="sourcePoint" />
          </mxGeometry>
        </mxCell>
        <mxCell id="HIkEoBBDDZ9_464_qA2W-3" value="" style="verticalLabelPosition=bottom;shadow=0;dashed=0;align=center;html=1;verticalAlign=middle;shape=mxgraph.electrical.abstract.multiplier;fillColor=#FFFFCC;fontStyle=1;strokeWidth=3;spacing=2;" vertex="1" parent="1">
          <mxGeometry x="600" y="220" width="40" height="40" as="geometry" />
        </mxCell>
        <mxCell id="HIkEoBBDDZ9_464_qA2W-4" style="edgeStyle=orthogonalEdgeStyle;rounded=1;orthogonalLoop=1;jettySize=auto;html=1;exitX=1;exitY=0.5;exitDx=0;exitDy=0;entryX=0.5;entryY=1;entryDx=0;entryDy=0;entryPerimeter=0;strokeColor=#990000;strokeWidth=2;" edge="1" parent="1" source="HIkEoBBDDZ9_464_qA2W-1" target="HIkEoBBDDZ9_464_qA2W-3">
          <mxGeometry relative="1" as="geometry">
            <mxPoint x="520" y="430" as="sourcePoint" />
            <mxPoint x="621" y="390" as="targetPoint" />
          </mxGeometry>
        </mxCell>
        <mxCell id="HIkEoBBDDZ9_464_qA2W-5" style="edgeStyle=orthogonalEdgeStyle;rounded=1;orthogonalLoop=1;jettySize=auto;html=1;exitX=1;exitY=0.5;exitDx=0;exitDy=0;exitPerimeter=0;entryX=0;entryY=0.5;entryDx=0;entryDy=0;entryPerimeter=0;strokeColor=#990000;strokeWidth=2;" edge="1" parent="1" source="HIkEoBBDDZ9_464_qA2W-3" target="wRKb6D9P7SZcGGQBe_X7-122">
          <mxGeometry relative="1" as="geometry" />
        </mxCell>
        <mxCell id="HIkEoBBDDZ9_464_qA2W-6" style="edgeStyle=orthogonalEdgeStyle;rounded=1;orthogonalLoop=1;jettySize=auto;html=1;exitX=1;exitY=0.5;exitDx=0;exitDy=0;exitPerimeter=0;strokeColor=#990000;strokeWidth=2;" edge="1" parent="1">
          <mxGeometry relative="1" as="geometry">
            <mxPoint x="735" y="240" as="sourcePoint" />
            <mxPoint x="870" y="240" as="targetPoint" />
          </mxGeometry>
        </mxCell>
        <mxCell id="HIkEoBBDDZ9_464_qA2W-7" value="u2.6" style="text;spacingTop=-5;align=center" vertex="1" parent="1">
          <mxGeometry x="327" y="410" width="30" height="20" as="geometry" />
        </mxCell>
      </root>
    </mxGraphModel>
  </diagram>
</mxfile>
